<svg width="303" height="216" viewBox="0 0 303 216" fill="none" xmlns="http://www.w3.org/2000/svg">
<path d="M194 116.5C194 169.262 151.448 212 99 212C46.5519 212 4 169.262 4 116.5C4 63.7378 46.5519 21 99 21C151.448 21 194 63.7378 194 116.5Z" stroke="#181818" stroke-width="8"/>
<path d="M171 157.5C171 161.782 167.73 165 164 165C160.27 165 157 161.782 157 157.5C157 153.218 160.27 150 164 150C167.73 150 171 153.218 171 157.5Z" stroke="#181818" stroke-width="6"/>
<circle cx="218.247" cy="7.24715" r="5.5" transform="rotate(66.2941 218.247 7.24715)" fill="#181818"/>
<line x1="266.105" y1="36.6656" x2="225.08" y2="118.336" stroke="#181818" stroke-width="8"/>
<line x1="265" y1="154.536" x2="300.63" y2="175.107" stroke="#181818" stroke-width="8"/>
</svg>
