<svg width="402" height="744" viewBox="0 0 402 744" fill="none" xmlns="http://www.w3.org/2000/svg">
<g filter="url(#filter0_di_2_207)">
<path d="M329 10L329 726L28 726C15.2974 726 4.99997 715.703 4.99997 703L5 33C5 20.2974 15.2975 9.99999 28 9.99999L329 10Z" fill="#231F1F"/>
<path d="M329 10L329 726L28 726C15.2974 726 4.99997 715.703 4.99997 703L5 33C5 20.2974 15.2975 9.99999 28 9.99999L329 10Z" fill="url(#paint0_linear_2_207)" fill-opacity="0.2"/>
<path d="M385 10C395.493 10 404 18.5066 404 29L404 707C404 717.493 395.493 726 385 726L329 726L329 10L385 10Z" fill="#231F1F"/>
<path d="M385 10C395.493 10 404 18.5066 404 29L404 707C404 717.493 395.493 726 385 726L329 726L329 10L385 10Z" fill="url(#paint1_linear_2_207)" fill-opacity="0.2"/>
<circle cx="367" cy="58" r="14" transform="rotate(90 367 58)" fill="#010000"/>
<circle cx="367" cy="679" r="14" transform="rotate(90 367 679)" fill="#010000"/>
<path d="M404 58L329 58" stroke="black" stroke-opacity="0.21" stroke-width="6"/>
<path d="M404 127L329 127" stroke="black" stroke-opacity="0.21" stroke-width="6"/>
<path d="M404 196L329 196" stroke="black" stroke-opacity="0.21" stroke-width="6"/>
<path d="M404 265L329 265" stroke="black" stroke-opacity="0.21" stroke-width="6"/>
<path d="M404 334L329 334" stroke="black" stroke-opacity="0.21" stroke-width="6"/>
<path d="M404 403L329 403" stroke="black" stroke-opacity="0.21" stroke-width="6"/>
<path d="M404 472L329 472" stroke="black" stroke-opacity="0.21" stroke-width="6"/>
<path d="M404 541L329 541" stroke="black" stroke-opacity="0.21" stroke-width="6"/>
<path d="M404 610L329 610" stroke="black" stroke-opacity="0.21" stroke-width="6"/>
<path d="M404 679L329 679" stroke="black" stroke-opacity="0.21" stroke-width="6"/>
<rect x="328.5" y="10.5" width="715" height="6" transform="rotate(90 328.5 10.5)" fill="#080808" stroke="#383838"/>
<rect x="322.5" y="355.5" width="26" height="27" transform="rotate(90 322.5 355.5)" fill="#080808" stroke="#383838"/>
<circle cx="223.5" cy="202.5" r="71.5" transform="rotate(90 223.5 202.5)" fill="#5C5B60"/>
<circle cx="223.5" cy="532.5" r="71.5" transform="rotate(90 223.5 532.5)" fill="#5C5B60"/>
<circle cx="224" cy="202" r="44" transform="rotate(90 224 202)" fill="#E7E1E1"/>
<circle cx="224" cy="532" r="44" transform="rotate(90 224 532)" fill="#E7E1E1"/>
<circle cx="224" cy="202" r="37" transform="rotate(90 224 202)" fill="#E7E1E1" stroke="#A29D9D" stroke-width="2"/>
<circle cx="224" cy="532" r="37" transform="rotate(90 224 532)" fill="#E7E1E1" stroke="#A29D9D" stroke-width="2"/>
<line x1="251" y1="203.5" x2="196" y2="203.5" stroke="#9E9B9B" stroke-width="3"/>
<line x1="251" y1="533.5" x2="196" y2="533.5" stroke="#9E9B9B" stroke-width="3"/>
<line x1="222.5" y1="230" x2="222.5" y2="175" stroke="#9E9B9B" stroke-width="3"/>
<line x1="222.5" y1="560" x2="222.5" y2="505" stroke="#9E9B9B" stroke-width="3"/>
<line x1="202.939" y1="221.173" x2="241.939" y2="182.174" stroke="#9E9B9B" stroke-width="3"/>
<line x1="202.939" y1="551.173" x2="241.939" y2="512.174" stroke="#9E9B9B" stroke-width="3"/>
<line x1="205.061" y1="181.705" x2="244.061" y2="220.705" stroke="#9E9B9B" stroke-width="3"/>
<line x1="205.061" y1="511.705" x2="244.061" y2="550.705" stroke="#9E9B9B" stroke-width="3"/>
<circle cx="223.5" cy="202.5" r="25.5" transform="rotate(90 223.5 202.5)" fill="#9E9B9B"/>
<circle cx="223.5" cy="532.5" r="25.5" transform="rotate(90 223.5 532.5)" fill="#9E9B9B"/>
</g>
<defs>
<filter id="filter0_di_2_207" x="-3.05176e-05" y="0" width="427" height="744" filterUnits="userSpaceOnUse" color-interpolation-filters="sRGB">
<feFlood flood-opacity="0" result="BackgroundImageFix"/>
<feColorMatrix in="SourceAlpha" type="matrix" values="0 0 0 0 0 0 0 0 0 0 0 0 0 0 0 0 0 0 127 0" result="hardAlpha"/>
<feOffset dx="9" dy="4"/>
<feGaussianBlur stdDeviation="7"/>
<feComposite in2="hardAlpha" operator="out"/>
<feColorMatrix type="matrix" values="0 0 0 0 0 0 0 0 0 0 0 0 0 0 0 0 0 0 0.39 0"/>
<feBlend mode="normal" in2="BackgroundImageFix" result="effect1_dropShadow_2_207"/>
<feBlend mode="normal" in="SourceGraphic" in2="effect1_dropShadow_2_207" result="shape"/>
<feColorMatrix in="SourceAlpha" type="matrix" values="0 0 0 0 0 0 0 0 0 0 0 0 0 0 0 0 0 0 127 0" result="hardAlpha"/>
<feOffset dx="-5"/>
<feGaussianBlur stdDeviation="1.5"/>
<feComposite in2="hardAlpha" operator="arithmetic" k2="-1" k3="1"/>
<feColorMatrix type="matrix" values="0 0 0 0 1 0 0 0 0 1 0 0 0 0 1 0 0 0 0.15 0"/>
<feBlend mode="normal" in2="shape" result="effect2_innerShadow_2_207"/>
</filter>
<linearGradient id="paint0_linear_2_207" x1="329" y1="368" x2="144.5" y2="368" gradientUnits="userSpaceOnUse">
<stop stop-color="white" stop-opacity="0.04"/>
<stop offset="1"/>
</linearGradient>
<linearGradient id="paint1_linear_2_207" x1="404" y1="368" x2="329" y2="368" gradientUnits="userSpaceOnUse">
<stop stop-color="#E3E3E3" stop-opacity="0.17"/>
<stop offset="1" stop-opacity="0.81"/>
</linearGradient>
</defs>
</svg>
