<svg width="424" height="760" viewBox="0 0 424 760" fill="none" xmlns="http://www.w3.org/2000/svg">
<g filter="url(#filter0_di_28_44)">
<path d="M293.44 557.956C290.54 554.995 289.48 550.863 290.24 547.039C290.64 544.541 291.79 542.136 293.74 540.255L301.18 533.039L399.01 433.196V12H0V748H399V665.693L293.44 557.956Z" fill="#EFE5D5"/>
<path d="M293.44 557.956C290.54 554.995 289.48 550.863 290.24 547.039C290.64 544.541 291.79 542.136 293.74 540.255L301.18 533.039L399.01 433.196V12H0V748H399V665.693L293.44 557.956Z" fill="url(#paint0_linear_28_44)" fill-opacity="0.2"/>
<path d="M399 263.73H0V333.692H399V263.73Z" fill="#F7B01A"/>
<path d="M399 263.73H0V333.692H399V263.73Z" fill="url(#paint1_linear_28_44)" fill-opacity="0.2"/>
<path d="M399 333.692H0V403.653H399V333.692Z" fill="#F0512E"/>
<path d="M399 333.692H0V403.653H399V333.692Z" fill="url(#paint2_linear_28_44)" fill-opacity="0.2"/>
<path d="M293.44 557.956C290.53 554.985 289.47 550.832 290.25 546.988C290.44 545.806 290.8 544.654 291.34 543.565H0V613.526H347.88L293.43 557.956H293.44Z" fill="#7A1F5B"/>
<path d="M293.44 557.956C290.53 554.985 289.47 550.832 290.25 546.988C290.44 545.806 290.8 544.654 291.34 543.565H0V613.526H347.88L293.43 557.956H293.44Z" fill="url(#paint3_linear_28_44)" fill-opacity="0.2"/>
<path d="M293.73 540.255L301.17 533.039L359.41 473.604H0V543.565H291.33C291.92 542.362 292.71 541.242 293.72 540.255H293.73Z" fill="#C91F69"/>
<path d="M293.73 540.255L301.17 533.039L359.41 473.604H0V543.565H291.33C291.92 542.362 292.71 541.242 293.72 540.255H293.73Z" fill="url(#paint4_linear_28_44)" fill-opacity="0.2"/>
<path d="M399 433.196V403.642H0V473.604H359.41L399 433.196Z" fill="#D71E41"/>
<path d="M399 433.196V403.642H0V473.604H359.41L399 433.196Z" fill="url(#paint5_linear_28_44)" fill-opacity="0.2"/>
</g>
<path d="M47.4845 43.9125C47.5785 44.4608 47.6647 44.829 47.743 45.017C47.837 45.205 48.2208 45.299 48.8945 45.299H51.033C51.55 45.299 51.879 45.2363 52.02 45.111C52.161 44.9857 52.2315 44.6802 52.2315 44.1945V33.7605C52.2315 33.3532 52.161 33.0868 52.02 32.9615C51.879 32.8205 51.6127 32.75 51.221 32.75H48.1895C47.8448 32.75 47.6333 32.797 47.555 32.891C47.4767 32.9693 47.3748 33.1025 47.2495 33.2905L46.6385 34.4655C46.3408 34.9825 46.0745 35.2488 45.8395 35.2645C45.6202 35.2645 45.3068 35.1078 44.8995 34.7945C43.8812 33.9955 42.667 33.3532 41.257 32.8675C39.847 32.3662 38.2882 32.1155 36.5805 32.1155C35.0452 32.1155 33.5333 32.3192 32.045 32.7265C30.5567 33.1182 29.2172 33.7448 28.0265 34.6065C26.8358 35.4682 25.8802 36.5727 25.1595 37.92C24.4388 39.2673 24.0785 40.8967 24.0785 42.808C24.0785 44.735 24.4467 46.3252 25.183 47.5785C25.935 48.8318 26.9142 49.858 28.1205 50.657C29.3425 51.4403 30.682 52.0748 32.139 52.5605C33.6117 53.0305 35.0765 53.4535 36.5335 53.8295C37.9905 54.1898 39.33 54.5893 40.552 55.028C41.774 55.451 42.7532 55.9993 43.4895 56.673C44.2258 57.331 44.594 58.2083 44.594 59.305C44.594 60.151 44.3433 60.9108 43.842 61.5845C43.3563 62.2582 42.6043 62.783 41.586 63.159C40.5677 63.535 39.283 63.723 37.732 63.723C35.8677 63.723 34.2305 63.347 32.8205 62.595C31.4105 61.843 30.2825 60.856 29.4365 59.634C28.5905 58.412 28.0813 57.096 27.909 55.686C27.862 55.263 27.815 54.981 27.768 54.84C27.721 54.699 27.4547 54.6285 26.969 54.6285H24.196C23.7417 54.6285 23.4597 54.699 23.35 54.84C23.2403 54.981 23.1855 55.2787 23.1855 55.733V67.248C23.1855 67.6553 23.2717 67.9217 23.444 68.047C23.632 68.1723 23.9375 68.235 24.3605 68.235H26.7105C27.1492 68.235 27.4625 68.1958 27.6505 68.1175C27.8542 68.0548 28.0343 67.8825 28.191 67.6005L28.6845 66.5195C28.9978 65.9555 29.2407 65.5952 29.413 65.4385C29.5853 65.2662 29.8987 65.3915 30.353 65.8145C31.3243 66.6918 32.5385 67.4203 33.9955 68C35.4682 68.5797 37.215 68.8695 39.236 68.8695C42.0247 68.8695 44.4922 68.4935 46.6385 67.7415C48.7848 66.9895 50.4612 65.7753 51.6675 64.099C52.8738 62.4227 53.477 60.2058 53.477 57.4485C53.477 55.4745 53.101 53.8373 52.349 52.537C51.6127 51.221 50.6257 50.14 49.388 49.294C48.166 48.448 46.8187 47.7587 45.346 47.226C43.8733 46.6933 42.4007 46.2312 40.928 45.8395C39.471 45.4478 38.1237 45.0483 36.886 44.641C35.664 44.218 34.677 43.7088 33.925 43.1135C33.1887 42.5025 32.8205 41.7113 32.8205 40.74C32.8205 39.7217 33.2827 38.8913 34.207 38.249C35.147 37.591 36.5492 37.262 38.4135 37.262C39.7452 37.262 41.0533 37.497 42.338 37.967C43.6383 38.437 44.7585 39.1655 45.6985 40.1525C46.6385 41.1395 47.2338 42.3928 47.4845 43.9125ZM59.4074 50.375C59.4074 53.054 59.8383 55.5137 60.6999 57.754C61.5616 59.9943 62.8071 61.9448 64.4364 63.6055C66.0814 65.2662 68.0789 66.5508 70.4289 67.4595C72.7789 68.3682 75.4344 68.8225 78.3954 68.8225C81.2468 68.8225 83.8318 68.3682 86.1504 67.4595C88.4691 66.5508 90.4666 65.2662 92.1429 63.6055C93.8193 61.9448 95.1039 59.9943 95.9969 57.754C96.9056 55.5137 97.3599 53.054 97.3599 50.375C97.3599 47.696 96.9291 45.2363 96.0674 42.996C95.2058 40.7557 93.9524 38.8052 92.3074 37.1445C90.6781 35.4838 88.6884 34.1992 86.3384 33.2905C84.0041 32.3818 81.3564 31.9275 78.3954 31.9275C75.4344 31.9275 72.7789 32.3818 70.4289 33.2905C68.0789 34.1992 66.0814 35.4838 64.4364 37.1445C62.8071 38.8052 61.5616 40.7557 60.6999 42.996C59.8383 45.2363 59.4074 47.696 59.4074 50.375ZM69.7944 50.375C69.7944 48.401 69.9511 46.5993 70.2644 44.97C70.5934 43.3407 71.1026 41.9385 71.7919 40.7635C72.4813 39.5728 73.3743 38.6563 74.4709 38.014C75.5676 37.356 76.8758 37.027 78.3954 37.027C79.9308 37.027 81.2389 37.356 82.3199 38.014C83.4009 38.6563 84.2861 39.5728 84.9754 40.7635C85.6648 41.9385 86.1661 43.3407 86.4794 44.97C86.8084 46.5993 86.9729 48.401 86.9729 50.375C86.9729 52.3333 86.8319 54.135 86.5499 55.78C86.2679 57.4093 85.7979 58.8193 85.1399 60.01C84.4976 61.185 83.6203 62.1015 82.5079 62.7595C81.4113 63.4018 80.0404 63.723 78.3954 63.723C76.8758 63.723 75.5676 63.4018 74.4709 62.7595C73.3743 62.1015 72.4813 61.185 71.7919 60.01C71.1026 58.8193 70.5934 57.4093 70.2644 55.78C69.9511 54.135 69.7944 52.3333 69.7944 50.375ZM106.015 38.0845C106.594 38.0845 106.939 38.1393 107.049 38.249C107.174 38.343 107.237 38.6877 107.237 39.283V61.373C107.237 61.9213 107.166 62.2738 107.025 62.4305C106.9 62.5872 106.563 62.6655 106.015 62.6655H103.641C103.124 62.6655 102.772 62.7125 102.584 62.8065C102.396 62.9005 102.302 63.2217 102.302 63.77V66.6605C102.302 67.2715 102.388 67.6475 102.56 67.7885C102.732 67.9295 103.116 68 103.712 68H116.613C117.099 68 117.467 67.953 117.718 67.859C117.984 67.7493 118.117 67.4282 118.117 66.8955V63.582C118.117 63.2217 118.062 62.9788 117.953 62.8535C117.843 62.7282 117.624 62.6655 117.295 62.6655H113.864C113.347 62.6655 113.025 62.595 112.9 62.454C112.775 62.2973 112.712 61.9605 112.712 61.4435V45.8395C112.712 44.7272 112.806 44.1005 112.994 43.9595C113.198 43.8028 113.488 43.9517 113.864 44.406L133.557 67.671C133.823 67.9843 134.081 68.2193 134.332 68.376C134.583 68.5483 135.014 68.6345 135.625 68.6345H138.139C138.546 68.6345 138.805 68.5718 138.915 68.4465C139.04 68.3212 139.103 68.0627 139.103 67.671V39.2595C139.103 38.8052 139.165 38.4997 139.291 38.343C139.432 38.1707 139.729 38.0845 140.184 38.0845H142.628C143.254 38.0845 143.646 38.014 143.803 37.873C143.959 37.7163 144.038 37.3325 144.038 36.7215V33.5255C144.038 33.1808 143.959 32.9693 143.803 32.891C143.646 32.797 143.411 32.75 143.098 32.75H129.797C129.28 32.75 128.927 32.8205 128.739 32.9615C128.567 33.1025 128.481 33.4472 128.481 33.9955V36.9565C128.481 37.4265 128.567 37.732 128.739 37.873C128.911 38.014 129.233 38.0845 129.703 38.0845H132.781C133.157 38.0845 133.392 38.1472 133.486 38.2725C133.596 38.3978 133.651 38.6563 133.651 39.048V50.892C133.651 51.9103 133.541 52.4587 133.322 52.537C133.118 52.5997 132.836 52.4273 132.476 52.02L116.637 33.8075C116.261 33.3688 115.892 33.0868 115.532 32.9615C115.172 32.8205 114.553 32.75 113.676 32.75H103.641C103.061 32.75 102.693 32.8283 102.537 32.985C102.38 33.1417 102.302 33.5255 102.302 34.1365V37.2385C102.302 37.5988 102.364 37.8338 102.49 37.9435C102.631 38.0375 102.897 38.0845 103.289 38.0845H106.015ZM158.236 67.1775C158.236 67.5222 158.291 67.7493 158.4 67.859C158.526 67.953 158.745 68 159.058 68H177.412C177.788 68 178.031 67.9452 178.14 67.8355C178.266 67.7102 178.328 67.4595 178.328 67.0835V63.6525C178.328 63.2452 178.274 62.9788 178.164 62.8535C178.07 62.7282 177.827 62.6655 177.435 62.6655H173.628C173.174 62.6655 172.9 62.6028 172.806 62.4775C172.728 62.3365 172.688 62.0467 172.688 61.608V54.5345C172.688 53.7982 172.759 53.289 172.9 53.007C173.057 52.725 173.284 52.3882 173.581 51.9965L183.31 39.1655C183.608 38.7895 183.851 38.5153 184.039 38.343C184.243 38.1707 184.705 38.0845 185.425 38.0845H187.164C187.509 38.0845 187.744 38.0532 187.869 37.9905C188.01 37.9122 188.081 37.7007 188.081 37.356V33.6665C188.081 33.2435 188.003 32.985 187.846 32.891C187.705 32.797 187.439 32.75 187.047 32.75H172.994C172.524 32.75 172.226 32.8127 172.101 32.938C171.976 33.0633 171.913 33.3767 171.913 33.878V36.9565C171.913 37.4735 171.991 37.7947 172.148 37.92C172.305 38.0297 172.641 38.0845 173.158 38.0845H175.461C176.041 38.0845 176.409 38.1472 176.566 38.2725C176.738 38.3978 176.636 38.7112 176.26 39.2125L170.785 46.8265C170.393 47.3592 170.096 47.7273 169.892 47.931C169.704 48.1347 169.516 48.1582 169.328 48.0015C169.14 47.8292 168.85 47.461 168.458 46.897L163.241 39.2595C162.928 38.8052 162.826 38.4997 162.936 38.343C163.061 38.1707 163.422 38.0845 164.017 38.0845H166.343C166.798 38.0845 167.08 38.0218 167.189 37.8965C167.315 37.7555 167.377 37.4578 167.377 37.0035V33.972C167.377 33.408 167.276 33.0633 167.072 32.938C166.868 32.8127 166.508 32.75 165.991 32.75H148.601C148.006 32.75 147.598 32.8362 147.379 33.0085C147.16 33.1652 147.05 33.5568 147.05 34.1835V37.0505C147.05 37.4892 147.105 37.7712 147.214 37.8965C147.308 38.0218 147.575 38.0845 148.013 38.0845H150.504C151.194 38.0845 151.625 38.155 151.797 38.296C151.985 38.437 152.204 38.7033 152.455 39.095L162.724 54.2055C162.975 54.5658 163.147 54.8948 163.241 55.1925C163.351 55.4902 163.406 55.968 163.406 56.626V61.5845C163.406 62.0388 163.351 62.3365 163.241 62.4775C163.132 62.6028 162.85 62.6655 162.395 62.6655H159.199C158.776 62.6655 158.51 62.7282 158.4 62.8535C158.291 62.9788 158.236 63.2608 158.236 63.6995V67.1775Z" fill="black"/>
<path d="M31.7515 242V186.69H11.998V175.429H64.9009V186.69H45.1929V242H31.7515ZM63.1789 224.245V211.484H88.2453V224.245H63.1789ZM121.807 242H109.047V193.911C104.385 198.27 98.8901 201.494 92.5629 203.583V192.003C95.893 190.914 99.5107 188.855 103.416 185.828C107.321 182.77 110 179.213 111.454 175.156H121.807V242ZM180.299 230.148V242H135.57C136.054 237.52 137.507 233.281 139.929 229.285C142.351 225.259 147.134 219.931 154.279 213.301C160.031 207.942 163.558 204.31 164.86 202.402C166.615 199.769 167.493 197.165 167.493 194.592C167.493 191.746 166.721 189.566 165.177 188.053C163.664 186.509 161.56 185.737 158.865 185.737C156.201 185.737 154.082 186.539 152.508 188.144C150.934 189.748 150.026 192.412 149.783 196.136L137.069 194.864C137.825 187.841 140.202 182.8 144.198 179.743C148.194 176.685 153.189 175.156 159.183 175.156C165.753 175.156 170.914 176.927 174.668 180.469C178.422 184.011 180.299 188.416 180.299 193.684C180.299 196.681 179.754 199.542 178.664 202.266C177.605 204.96 175.909 207.791 173.578 210.758C172.034 212.726 169.249 215.556 165.223 219.25C161.196 222.943 158.638 225.395 157.548 226.606C156.489 227.817 155.626 228.998 154.96 230.148H180.299ZM206.822 175.156C213.27 175.156 218.311 177.457 221.944 182.059C226.273 187.508 228.437 196.544 228.437 209.168C228.437 221.762 226.258 230.814 221.898 236.324C218.296 240.865 213.27 243.135 206.822 243.135C200.344 243.135 195.121 240.653 191.156 235.688C187.19 230.693 185.207 221.808 185.207 209.032C185.207 196.499 187.387 187.478 191.746 181.968C195.349 177.427 200.374 175.156 206.822 175.156ZM206.822 185.737C205.278 185.737 203.901 186.236 202.69 187.235C201.479 188.204 200.54 189.96 199.874 192.503C198.996 195.803 198.557 201.358 198.557 209.168C198.557 216.979 198.951 222.353 199.738 225.289C200.525 228.195 201.509 230.133 202.69 231.102C203.901 232.07 205.278 232.555 206.822 232.555C208.366 232.555 209.744 232.07 210.954 231.102C212.165 230.103 213.104 228.332 213.77 225.789C214.648 222.519 215.087 216.979 215.087 209.168C215.087 201.358 214.693 196 213.906 193.093C213.119 190.157 212.12 188.204 210.909 187.235C209.728 186.236 208.366 185.737 206.822 185.737Z" fill="black"/>
<defs>
<filter id="filter0_di_28_44" x="0" y="0" width="423.01" height="760" filterUnits="userSpaceOnUse" color-interpolation-filters="sRGB">
<feFlood flood-opacity="0" result="BackgroundImageFix"/>
<feColorMatrix in="SourceAlpha" type="matrix" values="0 0 0 0 0 0 0 0 0 0 0 0 0 0 0 0 0 0 127 0" result="hardAlpha"/>
<feOffset dx="12"/>
<feGaussianBlur stdDeviation="6"/>
<feColorMatrix type="matrix" values="0 0 0 0 0 0 0 0 0 0 0 0 0 0 0 0 0 0 0.52 0"/>
<feBlend mode="normal" in2="BackgroundImageFix" result="effect1_dropShadow_28_44"/>
<feBlend mode="normal" in="SourceGraphic" in2="effect1_dropShadow_28_44" result="shape"/>
<feColorMatrix in="SourceAlpha" type="matrix" values="0 0 0 0 0 0 0 0 0 0 0 0 0 0 0 0 0 0 127 0" result="hardAlpha"/>
<feOffset dx="-6"/>
<feComposite in2="hardAlpha" operator="arithmetic" k2="-1" k3="1"/>
<feColorMatrix type="matrix" values="0 0 0 0 1 0 0 0 0 1 0 0 0 0 1 0 0 0 0.25 0"/>
<feBlend mode="normal" in2="shape" result="effect2_innerShadow_28_44"/>
</filter>
<linearGradient id="paint0_linear_28_44" x1="-94.5" y1="442" x2="427.5" y2="420" gradientUnits="userSpaceOnUse">
<stop stop-color="#AE9671"/>
<stop offset="0.986722" stop-color="white" stop-opacity="0.46"/>
</linearGradient>
<linearGradient id="paint1_linear_28_44" x1="-94.4976" y1="304.605" x2="342.512" y2="110.849" gradientUnits="userSpaceOnUse">
<stop stop-color="#AE9671"/>
<stop offset="0.986722" stop-color="white" stop-opacity="0.46"/>
</linearGradient>
<linearGradient id="paint2_linear_28_44" x1="-94.4976" y1="374.566" x2="342.512" y2="180.81" gradientUnits="userSpaceOnUse">
<stop stop-color="#AE9671"/>
<stop offset="0.986722" stop-color="white" stop-opacity="0.46"/>
</linearGradient>
<linearGradient id="paint3_linear_28_44" x1="-82.3906" y1="584.439" x2="314.256" y2="431.11" gradientUnits="userSpaceOnUse">
<stop stop-color="#AE9671"/>
<stop offset="0.986722" stop-color="white" stop-opacity="0.46"/>
</linearGradient>
<linearGradient id="paint4_linear_28_44" x1="-85.1213" y1="514.478" x2="321.113" y2="352.238" gradientUnits="userSpaceOnUse">
<stop stop-color="#AE9671"/>
<stop offset="0.986722" stop-color="white" stop-opacity="0.46"/>
</linearGradient>
<linearGradient id="paint5_linear_28_44" x1="-94.4976" y1="444.516" x2="342.512" y2="250.761" gradientUnits="userSpaceOnUse">
<stop stop-color="#AE9671"/>
<stop offset="0.986722" stop-color="white" stop-opacity="0.46"/>
</linearGradient>
</defs>
</svg>
